# xmcd
#
# Track frame offsets:
#	150
#	16917
#	35111
#	54528
#	74712
#	93079
#	110017
#	132668
#	149632
#	166984
#	184420
#	203926
#	221565
#	239461
#	258529
#
# Disc length: 3462 seconds
#
# Revision: 6
# Processed by: cddbd v1.5.2PL0 Copyright (c) Steve Scherf et al.
# Submitted via: EasyCDDAExtractor 16.0.9.1
#
DISCID=f30d840f
DTITLE=Thalia
DYEAR=2002
DGENRE=Latin
TTITLE0=Tu Y Yo
TTITLE1=Asi Es El Destino
TTITLE2=En La Fiesta Mando Yo
TTITLE3=No Me Enseñaste
TTITLE4=Y Seguir
TTITLE5=A Quien Le Importa
TTITLE6=Vueltas En El Aire
TTITLE7=Heridas En El Alma
TTITLE8=La Loca
TTITLE9=Tu Y Yo (Remix) (Duo Con A.B. Quintanilla Y Los Kumbia Kings)
TTITLE10=The Mexican 2002 (Version En Español) (Con Marc Anthony)
TTITLE11=The Mexican 2002
TTITLE12=Closer To You
TTITLE13=You Spin Me 'Round
TTITLE14=Outro
EXTD=corrected version.
EXTT0=
EXTT1=
EXTT2=
EXTT3=
EXTT4=
EXTT5=
EXTT6=
EXTT7=
EXTT8=
EXTT9=
EXTT10=
EXTT11=
EXTT12=
EXTT13=
EXTT14=
PLAYORDER=
